<svg xmlns="http://www.w3.org/2000/svg" xmlns:xlink="http://www.w3.org/1999/xlink" contentStyleType="text/css" data-diagram-type="DESCRIPTION" height="685px" preserveAspectRatio="none" style="width:1443px;height:685px;background:#FFFFFF;" version="1.1" viewBox="0 0 1443 685" width="1443px" zoomAndPan="magnify"><title>Direct Deal Context Map</title><defs/><g><g class="title" data-source-line="1"><text fill="#000000" font-family="sans-serif" font-size="14" font-weight="bold" lengthAdjust="spacing" textLength="192.9648" x="618.3809" y="22.9951">Direct Deal Context Map</text></g><!--entity Account--><g class="entity" data-entity="Account" data-source-line="3" data-uid="ent0002" id="entity_Account"><path d="M8.5,43.2969 L85.1768,43.2969 A3.75,3.75 0 0 1 87.6768,45.7969 L94.6768,65.5938 L235.8027,65.5938 A2.5,2.5 0 0 1 238.3027,68.0938 L238.3027,112.6875 A2.5,2.5 0 0 1 235.8027,115.1875 L8.5,115.1875 A2.5,2.5 0 0 1 6,112.6875 L6,45.7969 A2.5,2.5 0 0 1 8.5,43.2969" fill="#F1F1F1" style="stroke:#181818;stroke-width:0.5;"/><line style="stroke:#181818;stroke-width:0.5;" x1="6" x2="94.6768" y1="65.5938" y2="65.5938"/><text fill="#000000" font-family="sans-serif" font-size="14" font-weight="bold" lengthAdjust="spacing" textLength="63.6768" x="16" y="59.292">Account</text><text fill="#000000" font-family="sans-serif" font-size="14" lengthAdjust="spacing" textLength="116.3135" x="58.9946" y="85.5889">Account Context</text><text fill="#000000" font-family="sans-serif" font-size="14" lengthAdjust="spacing" textLength="202.3027" x="16" y="101.8857">(direct-deal-account-service)</text></g><!--entity Chatting--><g class="entity" data-entity="Chatting" data-source-line="4" data-uid="ent0003" id="entity_Chatting"><path d="M1177.5,341.0769 L1258.3604,341.0769 A3.75,3.75 0 0 1 1260.8604,343.5769 L1267.8604,363.3738 L1406.8057,363.3738 A2.5,2.5 0 0 1 1409.3057,365.8738 L1409.3057,410.4675 A2.5,2.5 0 0 1 1406.8057,412.9675 L1177.5,412.9675 A2.5,2.5 0 0 1 1175,410.4675 L1175,343.5769 A2.5,2.5 0 0 1 1177.5,341.0769" fill="#F1F1F1" style="stroke:#181818;stroke-width:0.5;"/><line style="stroke:#181818;stroke-width:0.5;" x1="1175" x2="1267.8604" y1="363.3738" y2="363.3738"/><text fill="#000000" font-family="sans-serif" font-size="14" font-weight="bold" lengthAdjust="spacing" textLength="67.8604" x="1185" y="357.072">Chatting</text><text fill="#000000" font-family="sans-serif" font-size="14" lengthAdjust="spacing" textLength="119.3965" x="1227.4546" y="383.3689">Chatting Context</text><text fill="#000000" font-family="sans-serif" font-size="14" lengthAdjust="spacing" textLength="204.3057" x="1185" y="399.6657">(direct-deal-chatting-service)</text></g><!--entity Sale--><g class="entity" data-entity="Sale" data-source-line="5" data-uid="ent0004" id="entity_Sale"><path d="M320.2,341.0769 L367.0242,341.0769 A3.75,3.75 0 0 1 369.5242,343.5769 L376.5242,363.3738 L520.1043,363.3738 A2.5,2.5 0 0 1 522.6043,365.8738 L522.6043,410.4675 A2.5,2.5 0 0 1 520.1043,412.9675 L320.2,412.9675 A2.5,2.5 0 0 1 317.7,410.4675 L317.7,343.5769 A2.5,2.5 0 0 1 320.2,341.0769" fill="#F1F1F1" style="stroke:#181818;stroke-width:0.5;"/><line style="stroke:#181818;stroke-width:0.5;" x1="317.7" x2="376.5242" y1="363.3738" y2="363.3738"/><text fill="#000000" font-family="sans-serif" font-size="14" font-weight="bold" lengthAdjust="spacing" textLength="33.8242" x="327.7" y="357.072">Sale</text><text fill="#000000" font-family="sans-serif" font-size="14" lengthAdjust="spacing" textLength="89.5098" x="370.3973" y="383.3689">Sale Context</text><text fill="#000000" font-family="sans-serif" font-size="14" lengthAdjust="spacing" textLength="174.9043" x="327.7" y="399.6657">(direct-deal-sale-service)</text></g><!--entity Catalog--><g class="entity" data-entity="Catalog" data-source-line="6" data-uid="ent0005" id="entity_Catalog"><path d="M111.83,489.9669 L185.1298,489.9669 A3.75,3.75 0 0 1 187.6298,492.4669 L194.6298,512.2638 L368.4726,512.2638 A2.5,2.5 0 0 1 370.9726,514.7638 L370.9726,559.3575 A2.5,2.5 0 0 1 368.4726,561.8575 L111.83,561.8575 A2.5,2.5 0 0 1 109.33,559.3575 L109.33,492.4669 A2.5,2.5 0 0 1 111.83,489.9669" fill="#F1F1F1" style="stroke:#181818;stroke-width:0.5;"/><line style="stroke:#181818;stroke-width:0.5;" x1="109.33" x2="194.6298" y1="512.2638" y2="512.2638"/><text fill="#000000" font-family="sans-serif" font-size="14" font-weight="bold" lengthAdjust="spacing" textLength="60.2998" x="119.33" y="505.962">Catalog</text><text fill="#000000" font-family="sans-serif" font-size="14" lengthAdjust="spacing" textLength="113.3057" x="178.4985" y="532.2589">Catalog Context</text><text fill="#000000" font-family="sans-serif" font-size="14" lengthAdjust="spacing" textLength="231.6426" x="119.33" y="548.5557">(direct-deal-sale-catalog-service)</text></g><!--entity Transaction--><g class="entity" data-entity="Transaction" data-source-line="7" data-uid="ent0006" id="entity_Transaction"><path d="M598.24,489.9669 L704.2634,489.9669 A3.75,3.75 0 0 1 706.7634,492.4669 L713.7634,512.2638 L902.0574,512.2638 A2.5,2.5 0 0 1 904.5574,514.7638 L904.5574,559.3575 A2.5,2.5 0 0 1 902.0574,561.8575 L598.24,561.8575 A2.5,2.5 0 0 1 595.74,559.3575 L595.74,492.4669 A2.5,2.5 0 0 1 598.24,489.9669" fill="#F1F1F1" style="stroke:#181818;stroke-width:0.5;"/><line style="stroke:#181818;stroke-width:0.5;" x1="595.74" x2="713.7634" y1="512.2638" y2="512.2638"/><text fill="#000000" font-family="sans-serif" font-size="14" font-weight="bold" lengthAdjust="spacing" textLength="93.0234" x="605.74" y="505.962">Transaction</text><text fill="#000000" font-family="sans-serif" font-size="14" lengthAdjust="spacing" textLength="195.9453" x="647.176" y="532.2589">Transaction History Context</text><text fill="#000000" font-family="sans-serif" font-size="14" lengthAdjust="spacing" textLength="278.8174" x="605.74" y="548.5557">(direct-deal-transaction-history-service)</text></g><!--entity Gateway--><g class="entity" data-entity="Gateway" data-source-line="8" data-uid="ent0007" id="entity_Gateway"><path d="M304.45,192.1869 L386.0828,192.1869 A3.75,3.75 0 0 1 388.5828,194.6869 L395.5828,214.4838 L535.8611,214.4838 A2.5,2.5 0 0 1 538.3611,216.9838 L538.3611,261.5775 A2.5,2.5 0 0 1 535.8611,264.0775 L304.45,264.0775 A2.5,2.5 0 0 1 301.95,261.5775 L301.95,194.6869 A2.5,2.5 0 0 1 304.45,192.1869" fill="#F1F1F1" style="stroke:#181818;stroke-width:0.5;"/><line style="stroke:#181818;stroke-width:0.5;" x1="301.95" x2="395.5828" y1="214.4838" y2="214.4838"/><text fill="#000000" font-family="sans-serif" font-size="14" font-weight="bold" lengthAdjust="spacing" textLength="68.6328" x="311.95" y="208.182">Gateway</text><text fill="#000000" font-family="sans-serif" font-size="14" lengthAdjust="spacing" textLength="121.3857" x="354.4627" y="234.4789">Gateway Context</text><text fill="#000000" font-family="sans-serif" font-size="14" lengthAdjust="spacing" textLength="206.4111" x="311.95" y="250.7757">(direct-deal-gateway-service)</text></g><g class="entity" data-entity="GMN8" data-source-line="11" data-uid="ent0009" id="entity_GMN8"><path d="M273.13,59.1069 L273.13,75.2369 L238.75,79.2369 L273.13,83.2369 L273.13,99.3725 A0,0 0 0 0 273.13,99.3725 L545.1735,99.3725 A0,0 0 0 0 545.1735,99.3725 L545.1735,69.1069 L535.1735,59.1069 L273.13,59.1069 A0,0 0 0 0 273.13,59.1069" fill="#FEFFDD" style="stroke:#181818;stroke-width:0.5;"/><path d="M535.1735,59.1069 L535.1735,69.1069 L545.1735,69.1069 L535.1735,59.1069" fill="#FEFFDD" style="stroke:#181818;stroke-width:0.5;"/><text fill="#000000" font-family="sans-serif" font-size="13" lengthAdjust="spacing" textLength="125.8169" x="279.13" y="76.1738">- Gebruikersbeheer</text><text fill="#000000" font-family="sans-serif" font-size="13" lengthAdjust="spacing" textLength="251.0435" x="279.13" y="91.3066">- Het uitgeven van JWT-tokens (issuer)</text></g><g class="entity" data-entity="GMN11" data-source-line="16" data-uid="ent0012" id="entity_GMN11"><path d="M573.1,207.9969 L573.1,224.1269 L538.6,228.1269 L573.1,232.1269 L573.1,248.2625 A0,0 0 0 0 573.1,248.2625 L875.1933,248.2625 A0,0 0 0 0 875.1933,248.2625 L875.1933,217.9969 L865.1933,207.9969 L573.1,207.9969 A0,0 0 0 0 573.1,207.9969" fill="#FEFFDD" style="stroke:#181818;stroke-width:0.5;"/><path d="M865.1933,207.9969 L865.1933,217.9969 L875.1933,217.9969 L865.1933,207.9969" fill="#FEFFDD" style="stroke:#181818;stroke-width:0.5;"/><text fill="#000000" font-family="sans-serif" font-size="13" lengthAdjust="spacing" textLength="150.4141" x="579.1" y="225.0638">- Centrale API Gateway</text><text fill="#000000" font-family="sans-serif" font-size="13" lengthAdjust="spacing" textLength="281.0933" x="579.1" y="240.1966">- Verstuurt requests naar backend services</text></g><g class="entity" data-entity="GMN14" data-source-line="21" data-uid="ent0015" id="entity_GMN14"><path d="M1147.57,207.9969 L1147.57,248.2625 A0,0 0 0 0 1147.57,248.2625 L1288.15,248.2625 L1292.15,362.9238 L1296.15,248.2625 L1436.7267,248.2625 A0,0 0 0 0 1436.7267,248.2625 L1436.7267,217.9969 L1426.7267,207.9969 L1147.57,207.9969 A0,0 0 0 0 1147.57,207.9969" fill="#FEFFDD" style="stroke:#181818;stroke-width:0.5;"/><path d="M1426.7267,207.9969 L1426.7267,217.9969 L1436.7267,217.9969 L1426.7267,207.9969" fill="#FEFFDD" style="stroke:#181818;stroke-width:0.5;"/><text fill="#000000" font-family="sans-serif" font-size="13" lengthAdjust="spacing" textLength="224.8022" x="1153.57" y="225.0638">- Real-time chat tussen gebruikers</text><text fill="#000000" font-family="sans-serif" font-size="13" lengthAdjust="spacing" textLength="268.1567" x="1153.57" y="240.1966">- Valideert JWT-tokens voor authenticatie</text></g><g class="entity" data-entity="GMN17" data-source-line="26" data-uid="ent0018" id="entity_GMN17"><path d="M557.57,349.3269 L557.57,373.0269 L522.87,377.0269 L557.57,381.0269 L557.57,404.7253 A0,0 0 0 0 557.57,404.7253 L846.7267,404.7253 A0,0 0 0 0 846.7267,404.7253 L846.7267,359.3269 L836.7267,349.3269 L557.57,349.3269 A0,0 0 0 0 557.57,349.3269" fill="#FEFFDD" style="stroke:#181818;stroke-width:0.5;"/><path d="M836.7267,349.3269 L836.7267,359.3269 L846.7267,359.3269 L836.7267,349.3269" fill="#FEFFDD" style="stroke:#181818;stroke-width:0.5;"/><text fill="#000000" font-family="sans-serif" font-size="13" lengthAdjust="spacing" textLength="265.0083" x="563.57" y="366.3938">- Commandzijde van het verkoopdomein</text><text fill="#000000" font-family="sans-serif" font-size="13" lengthAdjust="spacing" textLength="253.8047" x="563.57" y="381.5266">- Event Sourcing &amp; CQRS (write model)</text><text fill="#000000" font-family="sans-serif" font-size="13" lengthAdjust="spacing" textLength="268.1567" x="563.57" y="396.6594">- Valideert JWT-tokens voor authenticatie</text></g><g class="entity" data-entity="GMN20" data-source-line="32" data-uid="ent0021" id="entity_GMN20"><path d="M95.57,622.8569 L95.57,678.2553 A0,0 0 0 0 95.57,678.2553 L384.7267,678.2553 A0,0 0 0 0 384.7267,678.2553 L384.7267,632.8569 L374.7267,622.8569 L244.15,622.8569 L240.15,562.0569 L236.15,622.8569 L95.57,622.8569 A0,0 0 0 0 95.57,622.8569" fill="#FEFFDD" style="stroke:#181818;stroke-width:0.5;"/><path d="M374.7267,622.8569 L374.7267,632.8569 L384.7267,632.8569 L374.7267,622.8569" fill="#FEFFDD" style="stroke:#181818;stroke-width:0.5;"/><text fill="#000000" font-family="sans-serif" font-size="13" lengthAdjust="spacing" textLength="237.7007" x="101.57" y="639.9238">- Queryzijde van het verkoopdomein</text><text fill="#000000" font-family="sans-serif" font-size="13" lengthAdjust="spacing" textLength="250.6816" x="101.57" y="655.0566">- Event Sourcing &amp; CQRS (read model)</text><text fill="#000000" font-family="sans-serif" font-size="13" lengthAdjust="spacing" textLength="268.1567" x="101.57" y="670.1894">- Valideert JWT-tokens voor authenticatie</text></g><g class="entity" data-entity="GMN23" data-source-line="38" data-uid="ent0024" id="entity_GMN23"><path d="M587,622.8569 L587,678.2553 A0,0 0 0 0 587,678.2553 L913.2969,678.2553 A0,0 0 0 0 913.2969,678.2553 L913.2969,632.8569 L903.2969,622.8569 L754.15,622.8569 L750.15,562.0569 L746.15,622.8569 L587,622.8569 A0,0 0 0 0 587,622.8569" fill="#FEFFDD" style="stroke:#181818;stroke-width:0.5;"/><path d="M903.2969,622.8569 L903.2969,632.8569 L913.2969,632.8569 L903.2969,622.8569" fill="#FEFFDD" style="stroke:#181818;stroke-width:0.5;"/><text fill="#000000" font-family="sans-serif" font-size="13" lengthAdjust="spacing" textLength="206.7939" x="593" y="639.9238">- Transactielogs &amp; geschiedenis</text><text fill="#000000" font-family="sans-serif" font-size="13" lengthAdjust="spacing" textLength="305.2969" x="593" y="655.0566">- Eventgedreven updates van het Sale Context</text><text fill="#000000" font-family="sans-serif" font-size="13" lengthAdjust="spacing" textLength="268.1567" x="593" y="670.1894">- Valideert JWT-tokens voor authenticatie</text></g><!--link Gateway to Account--><g class="link" data-entity-1="Gateway" data-entity-2="Account" data-source-line="44" data-uid="lnk26" id="link_Gateway_Account"><path d="M301.62,216.6969 C227.67,207.4569 142.28,190.8369 119.15,162.1869 C108.78,149.3369 107.4107,137.2214 110.1207,121.3414" fill="none" id="Gateway-to-Account" style="stroke:#181818;stroke-width:1;"/><polygon fill="#181818" points="111.13,115.4269,105.673,123.6257,110.2889,120.3556,113.559,124.9715,111.13,115.4269" style="stroke:#181818;stroke-width:1;"/><text fill="#000000" font-family="sans-serif" font-size="13" lengthAdjust="spacing" textLength="256.8833" x="120.15" y="158.2538">Login verzoek (authenticatie aanvraag)</text></g><!--link Account to Gateway--><g class="link" data-entity-1="Account" data-entity-2="Gateway" data-source-line="45" data-uid="lnk27" id="link_Account_Gateway"><path d="M238.53,110.9869 C244.15,112.4169 249.71,113.8269 255.15,115.1869 C310.99,129.1669 336.4,108.9869 381.15,145.1869 C395.73,156.9769 403.1433,192.17 409.0833,208.63" fill="none" id="Account-to-Gateway" style="stroke:#181818;stroke-width:1;"/><polygon fill="#181818" points="411.12,214.2738,411.8275,204.4503,409.4228,209.5706,404.3025,207.1659,411.12,214.2738" style="stroke:#181818;stroke-width:1;"/><text fill="#000000" font-family="sans-serif" font-size="13" lengthAdjust="spacing" textLength="116.7524" x="397.15" y="158.2538">JWT-token uitgifte</text></g><!--link Gateway to Sale--><g class="link" data-entity-1="Gateway" data-entity-2="Sale" data-source-line="47" data-uid="lnk28" id="link_Gateway_Sale"><path d="M420.15,264.3169 C420.15,287.4069 420.15,333.7838 420.15,356.9138" fill="none" id="Gateway-to-Sale" style="stroke:#181818;stroke-width:1;"/><polygon fill="#181818" points="420.15,362.9138,424.15,353.9138,420.15,357.9138,416.15,353.9138,420.15,362.9138" style="stroke:#181818;stroke-width:1;"/><text fill="#000000" font-family="sans-serif" font-size="13" lengthAdjust="spacing" textLength="221.7935" x="421.15" y="307.1438">Verstuurt requests met JWT-token</text></g><!--link Gateway to Catalog--><g class="link" data-entity-1="Gateway" data-entity-2="Catalog" data-source-line="48" data-uid="lnk29" id="link_Gateway_Catalog"><path d="M301.49,233.9069 C223.97,243.9469 128.01,270.9869 77.15,341.0769 C58.39,366.9369 62.27,384.6969 77.15,412.9669 C94.66,446.2369 121.8123,468.5195 153.1123,486.5695" fill="none" id="Gateway-to-Catalog" style="stroke:#181818;stroke-width:1;"/><polygon fill="#181818" points="158.31,489.5669,152.5118,481.6057,153.9786,487.0691,148.5152,488.5359,158.31,489.5669" style="stroke:#181818;stroke-width:1;"/><text fill="#000000" font-family="sans-serif" font-size="13" lengthAdjust="spacing" textLength="221.7935" x="78.15" y="381.5938">Verstuurt requests met JWT-token</text></g><!--link Gateway to Transaction--><g class="link" data-entity-1="Gateway" data-entity-2="Transaction" data-source-line="49" data-uid="lnk30" id="link_Gateway_Transaction"><path d="M538.67,259.8769 C544.24,261.2969 549.75,262.7069 555.15,264.0769 C692.33,298.9269 777.01,229.5569 864.15,341.0769 C902.07,389.6069 849.2461,469.8829 803.0561,508.0329" fill="none" id="Gateway-to-Transaction" style="stroke:#181818;stroke-width:1;"/><polygon fill="#181818" points="798.43,511.8538,807.9164,509.2065,802.2851,508.6697,802.8219,503.0384,798.43,511.8538" style="stroke:#181818;stroke-width:1;"/><text fill="#000000" font-family="sans-serif" font-size="13" lengthAdjust="spacing" textLength="221.7935" x="877.15" y="381.5938">Verstuurt requests met JWT-token</text></g><!--link Gateway to Chatting--><g class="link" data-entity-1="Gateway" data-entity-2="Chatting" data-source-line="50" data-uid="lnk31" id="link_Gateway_Chatting"><path d="M538.8,261.0769 C544.31,262.1769 549.78,263.1769 555.15,264.0769 C725.75,292.5269 772.17,268.0169 943.15,294.0769 C1035.56,308.1669 1057.17,319.6069 1148.15,341.0769 C1156.79,343.1169 1159.8749,343.8398 1168.8549,345.9898" fill="none" id="Gateway-to-Chatting" style="stroke:#181818;stroke-width:1;"/><polygon fill="#181818" points="1174.69,347.3869,1166.8687,341.4013,1169.8274,346.2227,1165.006,349.1814,1174.69,347.3869" style="stroke:#181818;stroke-width:1;"/><text fill="#000000" font-family="sans-serif" font-size="13" lengthAdjust="spacing" textLength="221.7935" x="1029.15" y="307.1438">Verstuurt requests met JWT-token</text></g><!--link Sale to Catalog--><g class="link" data-entity-1="Sale" data-entity-2="Catalog" data-source-line="52" data-uid="lnk32" id="link_Sale_Catalog"><path d="M377.04,413.2069 C348.75,436.2969 316.5283,484.88 288.1883,508.01" fill="none" id="Sale-to-Catalog" style="stroke:#181818;stroke-width:1;stroke-dasharray:7,7;"/><polygon fill="#181818" points="283.54,511.8038,293.0417,509.212,287.4136,508.6423,287.9833,503.0142,283.54,511.8038" style="stroke:#181818;stroke-width:1;"/><text fill="#000000" font-family="sans-serif" font-size="13" lengthAdjust="spacing" textLength="87.1978" x="337.15" y="456.0338">&#171;Conformist&#187;</text></g><!--link Sale to Transaction--><g class="link" data-entity-1="Sale" data-entity-2="Transaction" data-source-line="53" data-uid="lnk33" id="link_Sale_Transaction"><path d="M499.61,413.3969 C551.49,436.4869 613.4785,464.0769 665.3285,487.1569" fill="none" id="Sale-to-Transaction" style="stroke:#181818;stroke-width:1;stroke-dasharray:7,7;"/><polygon fill="#181818" points="670.81,489.5969,664.2144,482.2826,666.2421,487.5636,660.9611,489.5912,670.81,489.5969" style="stroke:#181818;stroke-width:1;"/><text fill="#000000" font-family="sans-serif" font-size="13" lengthAdjust="spacing" textLength="87.1978" x="596.15" y="456.0338">&#171;Conformist&#187;</text></g><!--link Account to Sale--><g class="link" data-entity-1="Account" data-entity-2="Sale" data-source-line="54" data-uid="lnk34" id="link_Account_Sale"><path d="M110.49,115.6069 C107.87,125.1069 105.48,135.4469 104.15,145.1869 C96.6,200.7169 106.46,224.5169 146.15,264.0769 C171.54,289.3769 244.9463,318.3953 311.6663,341.3453" fill="none" id="Account-to-Sale" style="stroke:#181818;stroke-width:1;stroke-dasharray:7,7;"/><polygon fill="#181818" points="317.34,343.2969,310.1305,336.587,312.6119,341.6705,307.5283,344.1519,317.34,343.2969" style="stroke:#181818;stroke-width:1;"/><text fill="#000000" font-family="sans-serif" font-size="13" lengthAdjust="spacing" textLength="136.9951" x="147.15" y="232.6938">&#171;Customer/Supplier&#187;</text></g><!--SRC=[hLJ1Rjim3BtxAuWUjkJWxXuK0OgqQ3TimDeKssKNnc9jBRRaIPIxzkj7ENPi1ysm1ZjQv7jyZwJ9cak2A-qeOxWYB65b3TDlXYzO9qcDsHPpWhFBBBF1S1_zOMQgnQHAC2dkegadr-YCvcU07Zh8mB4ga5cR_0X9reMdB3ree5cZA7wTmaje2e_98mN8MDhyR-Xibt8WOlSu43quD1uprjR0hVPitVCHKXuoqsANEUKUKGtyDyZqXCSuyrrqojD1aiHO9d0wBnZiutuAATpGnWMz9UStL10vURebXg0vfuOCD6ZWq_U7bEsMZ8UPzZwGcoTa54JEG-Q-O0ehCc9JfdBvzUFe-PkKuX0SWwDVWJnxC8WEDk8oadRo_M45jdNatqy-XVksaxeYY4i27BmNmVdUK2o6fLRYYiSU6ciTOE1216gPhAQZRjf54Iksgj2e5_rJKTkHGbhKaDjQMojRaJQIT2tjObZRuBAupkzWTNU_XjcJqy9OMKNb_7H56yjigxO1tTQbS2U3U3v9aoDK_r7IU5dJuOj4ffUQEVciqAJ8QDzhoacvThz2hMGr_Dx1-3y-ITjxsOiollca_r_ITDblF2pWiysrYPrwiRI5sOG744tZ4FDvqWCYk2TQ32hQFqG_nehZCgtynMjBNj78mmJJtvytmiRNvgqL-vlx3xYajNH-FjPvSI4JUhIkajErN0uPKqa7MNr3OsBN9ia8SlmgSX_MeQvBJMwv_0C0]--></g></svg>